<svg id="Layer_1" data-name="Layer 1" xmlns="http://www.w3.org/2000/svg" viewBox="0 0 1348.93 291.26"><defs><style>.cls-1{fill:#488f41;}.cls-2{fill:#4d9fd6;}.cls-3{fill:#fff;}</style></defs><title>visitorlogsv1</title><path class="cls-1" d="M220.89,355.32,196.44,260.2c-1.47-5.7-6.32-8.25-10.8-5.67l-90.08,52a9.43,9.43,0,0,1-12.89-4l-5.41-9.89a9.43,9.43,0,0,0-12.89-4L13.25,318.15c-4.47,2.58-6.93,9.35-5.47,15.05l32.5,126.4c1.46,5.69,6.32,8.24,10.79,5.66l164.35-94.89C219.89,367.79,222.36,361,220.89,355.32Z" transform="translate(-7.36 -253.52)"/><path class="cls-2" d="M333,430.82l-99.17-57.25c-4.47-2.58-11.76-2.58-16.2,0L54.35,468.46c-4.44,2.58-4.42,6.8,0,9.39l99.17,57.25c4.47,2.58,11.76,2.58,16.2,0l163.29-94.89C337.5,437.63,337.48,433.41,333,430.82ZM87.36,479.72l-6.73-3.89c-1.34-.77-1.35-2,0-2.81l145-84.24a5.34,5.34,0,0,1,4.86,0l6.72,3.88c1.35.78,1.35,2,0,2.81l-145,84.25A5.38,5.38,0,0,1,87.36,479.72Zm16.85,9.73-6.72-3.88c-1.34-.78-1.35-2,0-2.82l145-84.24a5.4,5.4,0,0,1,4.86,0l6.72,3.88c1.35.78,1.35,2.05,0,2.82l-145,84.24A5.4,5.4,0,0,1,104.21,489.45Zm163.26-22.12L216.39,497a5.37,5.37,0,0,1-4.86,0l-30.89-17.84c-1.34-.77-1.35-2,0-2.81l51.08-29.69a5.38,5.38,0,0,1,4.85,0l30.9,17.84C268.79,465.29,268.8,466.56,267.47,467.33Zm3.42-52.39-145,84.24a5.4,5.4,0,0,1-4.86,0l-6.73-3.88c-1.33-.78-1.34-2,0-2.82l145-84.24a5.38,5.38,0,0,1,4.85,0l6.73,3.89C272.21,412.9,272.22,414.17,270.89,414.94Z" transform="translate(-7.36 -253.52)"/><path class="cls-3" d="M377.13,298q-7.5,0-10.58-2.43c-2.06-1.61-3.08-4.48-3.08-8.59v-4.19q0-6.39,3.41-8.7c2.28-1.54,5.76-2.31,10.47-2.31q7.71,0,10.79,2.42t3.09,8.59V287q0,6.39-3.31,8.7T377.13,298Zm13.44,118.76a13.19,13.19,0,0,1-3.75,9.58,13.56,13.56,0,0,1-18.95,0,13.18,13.18,0,0,1-3.74-9.58v-91a13.21,13.21,0,0,1,3.74-9.59,13.58,13.58,0,0,1,18.95,0,13.22,13.22,0,0,1,3.75,9.59Z" transform="translate(-7.36 -253.52)"/><path class="cls-3" d="M480.68,310.1q16.31,0,24.79,6.83a34.81,34.81,0,0,1,11.68,18.18,93,93,0,0,1,3.19,25.23v56.41a13.22,13.22,0,0,1-3.74,9.58,13.56,13.56,0,0,1-19,0,13.19,13.19,0,0,1-3.75-9.58V360.34A42.75,42.75,0,0,0,492,347.23a18.13,18.13,0,0,0-6.72-9.36q-4.85-3.53-13.88-3.53-8.82,0-14.87,3.53a24.06,24.06,0,0,0-9.26,9.36,26.84,26.84,0,0,0-3.19,13.11v56.41a13.19,13.19,0,0,1-3.75,9.58,13.56,13.56,0,0,1-18.95,0,13.18,13.18,0,0,1-3.74-9.58v-91a13.21,13.21,0,0,1,3.74-9.59,13.58,13.58,0,0,1,18.95,0,13.22,13.22,0,0,1,3.75,9.59v9.47l-3.31-.66a43.44,43.44,0,0,1,5.73-8,54.85,54.85,0,0,1,8.81-8,44.68,44.68,0,0,1,11.46-6.06A40.55,40.55,0,0,1,480.68,310.1Z" transform="translate(-7.36 -253.52)"/><path class="cls-3" d="M550.31,314.51h52.22a12.06,12.06,0,0,1,12.34,12.34,11.32,11.32,0,0,1-3.53,8.48,12.15,12.15,0,0,1-8.81,3.42H550.31A12.06,12.06,0,0,1,538,326.41a11.3,11.3,0,0,1,3.53-8.48A12.12,12.12,0,0,1,550.31,314.51ZM573.88,287a12.33,12.33,0,0,1,9.37,3.85,13.47,13.47,0,0,1,3.63,9.59v98a9.56,9.56,0,0,0,1.22,5.07,6.85,6.85,0,0,0,3.3,2.86,11.49,11.49,0,0,0,4.52.88,11.72,11.72,0,0,0,4.85-1,12.18,12.18,0,0,1,5.06-1,7.44,7.44,0,0,1,5.62,2.86Q614,411,614,416.09c0,4.11-2.25,7.49-6.72,10.13a27.92,27.92,0,0,1-14.44,4,76.46,76.46,0,0,1-10.24-.77A27.86,27.86,0,0,1,572,425.67a22.91,22.91,0,0,1-8.26-9.14q-3.3-6.16-3.31-17V300.41A13.17,13.17,0,0,1,573.88,287Z" transform="translate(-7.36 -253.52)"/><path class="cls-3" d="M693.53,432.39q-18.74,0-32.5-7.82a54,54,0,0,1-21.15-21.26q-7.39-13.44-7.38-30.41,0-19.83,8-33.82a56.78,56.78,0,0,1,21-21.48,54.28,54.28,0,0,1,27.54-7.5,50.19,50.19,0,0,1,21.26,4.63,58.16,58.16,0,0,1,17.74,12.67A61.59,61.59,0,0,1,740.35,346a56.63,56.63,0,0,1,4.52,22.47,11.36,11.36,0,0,1-4.19,8.6,14,14,0,0,1-9.25,3.3H647.26l-6.61-22h80.86l-4.85,4.4v-5.94a20.12,20.12,0,0,0-4.51-11.46,29.47,29.47,0,0,0-10.14-8,28.79,28.79,0,0,0-12.89-3,41.92,41.92,0,0,0-12.34,1.76,23.67,23.67,0,0,0-9.91,5.95,28.82,28.82,0,0,0-6.61,11.24q-2.43,7.05-2.43,17.85,0,11.89,5,20.16a33.86,33.86,0,0,0,29.42,16.85,51.36,51.36,0,0,0,13-1.32,29.24,29.24,0,0,0,7.82-3.19q3-1.87,5.4-3.2a16.81,16.81,0,0,1,7.49-2,11.1,11.1,0,0,1,11.24,11q0,5.94-6.17,10.79-5.75,4.85-16.09,8.48A63.9,63.9,0,0,1,693.53,432.39Z" transform="translate(-7.36 -253.52)"/><path class="cls-3" d="M796.65,416.75a13.19,13.19,0,0,1-13.44,13.44,12.4,12.4,0,0,1-9.26-3.86,13.18,13.18,0,0,1-3.74-9.58V280.58a13.16,13.16,0,0,1,13.44-13.44A12.33,12.33,0,0,1,793,271a13.48,13.48,0,0,1,3.64,9.59Z" transform="translate(-7.36 -253.52)"/><path class="cls-3" d="M856.13,416.75a13.17,13.17,0,0,1-13.44,13.44,12.38,12.38,0,0,1-9.25-3.86,13.19,13.19,0,0,1-3.75-9.58V280.58a13.17,13.17,0,0,1,13.44-13.44A12.35,12.35,0,0,1,852.5,271a13.47,13.47,0,0,1,3.63,9.59Z" transform="translate(-7.36 -253.52)"/><path class="cls-3" d="M898.44,298q-7.5,0-10.58-2.43c-2.06-1.61-3.08-4.48-3.08-8.59v-4.19q0-6.39,3.41-8.7c2.28-1.54,5.76-2.31,10.47-2.31q7.71,0,10.79,2.42t3.09,8.59V287q0,6.39-3.31,8.7T898.44,298Zm13.44,118.76a13.19,13.19,0,0,1-3.75,9.58,13.56,13.56,0,0,1-19,0,13.18,13.18,0,0,1-3.74-9.58v-91a13.21,13.21,0,0,1,3.74-9.59,13.58,13.58,0,0,1,19,0,13.22,13.22,0,0,1,3.75,9.59Z" transform="translate(-7.36 -253.52)"/><path class="cls-3" d="M967.62,416.75a13.19,13.19,0,0,1-13.44,13.44,12.42,12.42,0,0,1-9.26-3.86,13.22,13.22,0,0,1-3.74-9.58V280.58a13.17,13.17,0,0,1,13.44-13.44A12.31,12.31,0,0,1,964,271a13.44,13.44,0,0,1,3.64,9.59Z" transform="translate(-7.36 -253.52)"/><path class="cls-3" d="M1110.62,371.36q0,18.06-8,31.84a57.75,57.75,0,0,1-21.6,21.48,63.37,63.37,0,0,1-60.59,0A57.72,57.72,0,0,1,998.8,403.2q-8.06-13.77-8-31.84t8-31.84a58.53,58.53,0,0,1,21.59-21.59,62.52,62.52,0,0,1,60.59,0,58.56,58.56,0,0,1,21.6,21.59Q1110.62,353.29,1110.62,371.36Zm-26.44,0a40.07,40.07,0,0,0-4.52-19.5A33.55,33.55,0,0,0,1067.54,339a33,33,0,0,0-33.71,0,33.55,33.55,0,0,0-12.12,12.89q-4.51,8.26-4.51,19.5a39.6,39.6,0,0,0,4.51,19.28,33.62,33.62,0,0,0,12.12,12.89,33.06,33.06,0,0,0,33.71,0,33.62,33.62,0,0,0,12.12-12.89A39.6,39.6,0,0,0,1084.18,371.36Z" transform="translate(-7.36 -253.52)"/><path class="cls-3" d="M1182.67,310.1a48.33,48.33,0,0,1,17,2.87,49,49,0,0,1,13.33,7.27,44,44,0,0,1,8.82,8.92c2.12,3,3.19,5.55,3.19,7.6l-5.73,2.87V323.54A13.21,13.21,0,0,1,1223,314a12.63,12.63,0,0,1,9.47-3.86,12.85,12.85,0,0,1,9.48,3.75,13.14,13.14,0,0,1,3.74,9.69v98q0,19.17-8.26,30.74a46.85,46.85,0,0,1-21.7,16.75,79.71,79.71,0,0,1-28.87,5.17,76.5,76.5,0,0,1-11.45-1.1q-7.07-1.09-13.44-2.64a73.68,73.68,0,0,1-9.7-2.87q-6.62-2.86-9.14-7.16a10.78,10.78,0,0,1-1-9.14c1.33-4.26,3.45-7.16,6.39-8.7a11,11,0,0,1,9.26-.55q2.2.66,7.27,2.64a112.86,112.86,0,0,0,11.13,3.64,41.32,41.32,0,0,0,10.68,1.65q16.53,0,24.46-6.61t7.93-18.29V406l2.65,2c0,1.91-1,4.23-3,6.94a40.43,40.43,0,0,1-8.15,8.05,50,50,0,0,1-12.23,6.72,40.91,40.91,0,0,1-15,2.75,52.25,52.25,0,0,1-28.21-7.82A55.25,55.25,0,0,1,1135.51,403q-7.26-13.77-7.27-31.62,0-18.08,7.27-31.84a55.87,55.87,0,0,1,19.61-21.59A50.36,50.36,0,0,1,1182.67,310.1Zm4.18,24.24a31.31,31.31,0,0,0-17.4,4.85,32.89,32.89,0,0,0-11.68,13.22,41.81,41.81,0,0,0-4.19,18.95,41.32,41.32,0,0,0,4.19,18.73,32.89,32.89,0,0,0,11.68,13.22,31.3,31.3,0,0,0,17.4,4.84,31.75,31.75,0,0,0,17.63-4.84,33,33,0,0,0,11.68-13.22,41.31,41.31,0,0,0,4.18-18.73,41.8,41.8,0,0,0-4.18-18.95,33,33,0,0,0-11.68-13.22A31.76,31.76,0,0,0,1186.85,334.34Z" transform="translate(-7.36 -253.52)"/><path class="cls-3" d="M1265.29,411.9a12.3,12.3,0,0,1-2-7.93q.21-4.85,5.73-8.38a12,12,0,0,1,7.49-1.87q4,.33,7.71,4.08a51.73,51.73,0,0,0,13.44,9.91q7,3.53,17.63,3.53a60.53,60.53,0,0,0,7.27-1,14,14,0,0,0,6.94-3.53q3-2.75,3-8.48a9.69,9.69,0,0,0-3.3-7.71,27.89,27.89,0,0,0-8.71-4.85q-5.4-2-12-3.75-6.84-2-14-4.4a58.37,58.37,0,0,1-13.11-6.28,30.19,30.19,0,0,1-9.7-10.25q-3.75-6.39-3.75-16.08,0-11,6.17-18.73a40.27,40.27,0,0,1,16-11.9,51.91,51.91,0,0,1,20.6-4.19,66,66,0,0,1,14.32,1.66,56.09,56.09,0,0,1,14.32,5.28,35.33,35.33,0,0,1,11.46,9.59,15.66,15.66,0,0,1,2.87,7.93q.43,4.63-4.19,8.37a10.61,10.61,0,0,1-7.71,2.32,11.58,11.58,0,0,1-7.27-3,26.06,26.06,0,0,0-10-7.71A34.45,34.45,0,0,0,1310,331.7a37,37,0,0,0-7.16.77,14.14,14.14,0,0,0-6.72,3.3c-1.91,1.69-2.87,4.38-2.87,8.05a10.28,10.28,0,0,0,3.31,8,25.08,25.08,0,0,0,8.92,4.85q5.63,1.88,12,3.63,6.62,1.77,13.44,4.19a53.23,53.23,0,0,1,12.56,6.39,30.29,30.29,0,0,1,9.25,10.24q3.52,6.29,3.53,16a29,29,0,0,1-6.61,19.17,41.87,41.87,0,0,1-16.53,12,52.79,52.79,0,0,1-20.27,4.08,78.82,78.82,0,0,1-26-4.52A44.9,44.9,0,0,1,1265.29,411.9Z" transform="translate(-7.36 -253.52)"/><path class="cls-3" d="M361.15,478.39a4.49,4.49,0,0,1,1.84.44,3.38,3.38,0,0,1,1.47,1.26l18.72,28.52-3.17-.15,19.09-28.37a3.54,3.54,0,0,1,3-1.7,3.72,3.72,0,0,1,2.61,1.07,3.53,3.53,0,0,1,1.14,2.69v44.14a3.7,3.7,0,0,1-1,2.69,3.61,3.61,0,0,1-2.72,1.07,3.85,3.85,0,0,1-2.84-1.07,3.66,3.66,0,0,1-1.07-2.69V488.93l2.36.52-16.21,24.68a4.64,4.64,0,0,1-1.33,1.14,3.63,3.63,0,0,1-3.35,0,4.44,4.44,0,0,1-1.37-1.14l-15.62-24.32,1.77-2.94v39.42a3.8,3.8,0,0,1-1,2.69,3.44,3.44,0,0,1-2.62,1.07,3.32,3.32,0,0,1-2.54-1.07,3.81,3.81,0,0,1-1-2.69V482.15a3.54,3.54,0,0,1,1.15-2.65A3.72,3.72,0,0,1,361.15,478.39Z" transform="translate(-7.36 -253.52)"/><path class="cls-3" d="M425.62,526.29a3.78,3.78,0,0,1-1.21,2.69,3.84,3.84,0,0,1-2.69,1.07A3.78,3.78,0,0,1,419,529a3.66,3.66,0,0,1-1.07-2.69V482.22a3.55,3.55,0,0,1,1.11-2.68,3.94,3.94,0,0,1,2.87-1.07,3.68,3.68,0,0,1,2.62,1.07,3.51,3.51,0,0,1,1.14,2.68Z" transform="translate(-7.36 -253.52)"/><path class="cls-3" d="M453.4,530.79a28,28,0,0,1-9.43-1.48,23.6,23.6,0,0,1-7.88-4.86,3.66,3.66,0,0,1-1.22-1.44,4,4,0,0,1-.41-1.73,3.6,3.6,0,0,1,1-2.51,3.38,3.38,0,0,1,2.58-1.1,3.53,3.53,0,0,1,2.21.81,20.9,20.9,0,0,0,5.85,3.9,17.88,17.88,0,0,0,7.19,1.33,14.88,14.88,0,0,0,5.42-1,10.1,10.1,0,0,0,3.94-2.58,5.41,5.41,0,0,0,1.47-3.75,6.44,6.44,0,0,0-1.51-4.39,11.27,11.27,0,0,0-4.35-2.87,39.64,39.64,0,0,0-6.81-2,33.5,33.5,0,0,1-6.6-1.85,17.23,17.23,0,0,1-5-3,12.17,12.17,0,0,1-3.17-4.31,14.25,14.25,0,0,1-1.11-5.82,12.81,12.81,0,0,1,2.36-7.74,15.29,15.29,0,0,1,6.41-5,22.61,22.61,0,0,1,9.14-1.77,25.82,25.82,0,0,1,8.7,1.44A17.68,17.68,0,0,1,468.8,483a4.41,4.41,0,0,1,1.77,3.31,3.52,3.52,0,0,1-1.07,2.47A3.28,3.28,0,0,1,467,490a2.7,2.7,0,0,1-1.77-.59,11.33,11.33,0,0,0-3.17-2.24,25.07,25.07,0,0,0-4.24-1.66,15.35,15.35,0,0,0-4.31-.67,15.67,15.67,0,0,0-5.67.92,8.28,8.28,0,0,0-3.61,2.51A5.81,5.81,0,0,0,443,492a6,6,0,0,0,1.44,4.13,10.1,10.1,0,0,0,4,2.61,46.6,46.6,0,0,0,5.89,1.81,64.43,64.43,0,0,1,7.26,2,18.48,18.48,0,0,1,5.42,2.84,11.34,11.34,0,0,1,3.38,4.31,15.32,15.32,0,0,1,1.18,6.41,12.5,12.5,0,0,1-2.5,7.74,16.57,16.57,0,0,1-6.6,5.15A21.86,21.86,0,0,1,453.4,530.79Z" transform="translate(-7.36 -253.52)"/><path class="cls-3" d="M508.3,526.29a3.66,3.66,0,0,1-1.07,2.69,3.73,3.73,0,0,1-5.23,0,3.66,3.66,0,0,1-1.07-2.69v-47a3.57,3.57,0,0,1,1.11-2.69,3.68,3.68,0,0,1,2.65-1.07,3.44,3.44,0,0,1,2.62,1.07,3.8,3.8,0,0,1,1,2.69Z" transform="translate(-7.36 -253.52)"/><path class="cls-3" d="M555.68,510.67a20.74,20.74,0,0,1-2.58,10.43,18.89,18.89,0,0,1-7,7.11,20.46,20.46,0,0,1-19.89,0,19.14,19.14,0,0,1-7-7.11,22.21,22.21,0,0,1,0-20.93,19.4,19.4,0,0,1,7-7.15,19.47,19.47,0,0,1,26.89,7.15A20.85,20.85,0,0,1,555.68,510.67Zm-7.37,0a14.55,14.55,0,0,0-1.62-7,12.43,12.43,0,0,0-4.38-4.71,11.35,11.35,0,0,0-6.16-1.74,11.5,11.5,0,0,0-6.19,1.74,12.37,12.37,0,0,0-4.42,4.71,15.87,15.87,0,0,0,0,14,12.09,12.09,0,0,0,4.42,4.71,11.74,11.74,0,0,0,6.19,1.7,11.58,11.58,0,0,0,6.16-1.7,12.14,12.14,0,0,0,4.38-4.71A14.47,14.47,0,0,0,548.31,510.67Z" transform="translate(-7.36 -253.52)"/><path class="cls-3" d="M580.15,490.4a15.89,15.89,0,0,1,5.82,1,16.92,16.92,0,0,1,4.6,2.61,14.71,14.71,0,0,1,3.06,3.28,5.63,5.63,0,0,1,1.11,2.95l-1.7.07v-5.89a3.77,3.77,0,0,1,1-2.66,3.49,3.49,0,0,1,2.66-1.1,3.53,3.53,0,0,1,2.65,1.07,3.7,3.7,0,0,1,1,2.69V527q0,6.27-2.65,10.21a15.54,15.54,0,0,1-7,5.78,24.55,24.55,0,0,1-9.62,1.85,23.55,23.55,0,0,1-4.34-.48,41.44,41.44,0,0,1-4.61-1.14,9.53,9.53,0,0,1-2.91-1.33,4.82,4.82,0,0,1-2.25-2.06,2.71,2.71,0,0,1,0-2.36,3.28,3.28,0,0,1,2-2,4.58,4.58,0,0,1,2.88.22q.73.23,2.28.81a31.23,31.23,0,0,0,3.47,1.07,14.83,14.83,0,0,0,3.61.48q5.9,0,8.88-2.73a9.58,9.58,0,0,0,3-7.44v-6.63l.81.51a7.12,7.12,0,0,1-1.36,3.13,12.77,12.77,0,0,1-3,2.91,16.7,16.7,0,0,1-4.23,2.18,14.73,14.73,0,0,1-4.9.85,17.14,17.14,0,0,1-9.36-2.62,18.8,18.8,0,0,1-6.56-7.15,23.58,23.58,0,0,1,0-20.85A18.94,18.94,0,0,1,571,493,16.73,16.73,0,0,1,580.15,490.4Zm1.1,6.78a11.39,11.39,0,0,0-6.34,1.77,12.31,12.31,0,0,0-4.27,4.79,15.93,15.93,0,0,0,0,13.71,12.31,12.31,0,0,0,4.27,4.79,11.39,11.39,0,0,0,6.34,1.77,11.53,11.53,0,0,0,6.34-1.74,11.87,11.87,0,0,0,4.27-4.78,16.09,16.09,0,0,0,0-13.78,11.83,11.83,0,0,0-4.27-4.79A11.53,11.53,0,0,0,581.25,497.18Z" transform="translate(-7.36 -253.52)"/><path class="cls-3" d="M607.63,524a4,4,0,0,1-.59-2.4,3,3,0,0,1,1.55-2.32,3.3,3.3,0,0,1,2.17-.55,3.56,3.56,0,0,1,2.18,1.14,16.38,16.38,0,0,0,4.6,3.61,13.13,13.13,0,0,0,6.16,1.33,14.92,14.92,0,0,0,3-.48,5.85,5.85,0,0,0,2.65-1.48,4.14,4.14,0,0,0,1.11-3.13,3.84,3.84,0,0,0-1.18-2.94,9,9,0,0,0-3.1-1.81c-1.28-.47-2.65-.9-4.13-1.29s-3.15-.93-4.75-1.47a18,18,0,0,1-4.31-2.1,10.19,10.19,0,0,1-3.13-3.36,9.85,9.85,0,0,1-1.22-5.08,9.38,9.38,0,0,1,2-6,13.11,13.11,0,0,1,5.08-3.91,16.58,16.58,0,0,1,6.82-1.4A19.62,19.62,0,0,1,627,491a18.67,18.67,0,0,1,4.57,1.73,13,13,0,0,1,3.83,3.09,4.22,4.22,0,0,1,.85,2.29,2.67,2.67,0,0,1-1.22,2.36,2.93,2.93,0,0,1-2.13.66,3.27,3.27,0,0,1-2.07-.81,9.35,9.35,0,0,0-3.61-2.76,12,12,0,0,0-5-1,11.27,11.27,0,0,0-2.91.41,5.6,5.6,0,0,0-2.54,1.43,4.1,4.1,0,0,0-1,3,3.79,3.79,0,0,0,1.21,2.95,9.64,9.64,0,0,0,3.21,1.84,38.67,38.67,0,0,0,4.35,1.33c1.52.39,3,.86,4.53,1.4a16.51,16.51,0,0,1,4.05,2.1,10.17,10.17,0,0,1,2.95,3.32,10.32,10.32,0,0,1,1.14,5.12,9.34,9.34,0,0,1-2.1,6.15,13.3,13.3,0,0,1-5.31,3.87,17.5,17.5,0,0,1-6.74,1.33,24.5,24.5,0,0,1-8.36-1.51A15.41,15.41,0,0,1,607.63,524Z" transform="translate(-7.36 -253.52)"/><path class="cls-3" d="M663.34,524a4,4,0,0,1-.59-2.4,2.94,2.94,0,0,1,1.55-2.32,3.29,3.29,0,0,1,2.17-.55,3.56,3.56,0,0,1,2.18,1.14,16.38,16.38,0,0,0,4.6,3.61,13.11,13.11,0,0,0,6.15,1.33,15,15,0,0,0,3-.48,5.85,5.85,0,0,0,2.65-1.48,4.17,4.17,0,0,0,1.1-3.13,3.81,3.81,0,0,0-1.18-2.94,8.86,8.86,0,0,0-3.09-1.81c-1.28-.47-2.65-.9-4.13-1.29s-3.15-.93-4.75-1.47a18,18,0,0,1-4.31-2.1,10.19,10.19,0,0,1-3.13-3.36,9.85,9.85,0,0,1-1.22-5.08,9.43,9.43,0,0,1,2-6,13.22,13.22,0,0,1,5.09-3.91,16.56,16.56,0,0,1,6.81-1.4,19.64,19.64,0,0,1,4.5.56,18.82,18.82,0,0,1,4.57,1.73,13,13,0,0,1,3.83,3.09,4.3,4.3,0,0,1,.85,2.29,2.67,2.67,0,0,1-1.22,2.36,2.93,2.93,0,0,1-2.13.66,3.27,3.27,0,0,1-2.07-.81,9.42,9.42,0,0,0-3.61-2.76,12,12,0,0,0-5-1,11.27,11.27,0,0,0-2.91.41,5.55,5.55,0,0,0-2.54,1.43,4.1,4.1,0,0,0-1,3,3.79,3.79,0,0,0,1.21,2.95,9.64,9.64,0,0,0,3.21,1.84,38.48,38.48,0,0,0,4.34,1.33c1.53.39,3,.86,4.54,1.4a16.87,16.87,0,0,1,4,2.1,9.65,9.65,0,0,1,4.09,8.44,9.34,9.34,0,0,1-2.1,6.15,13.3,13.3,0,0,1-5.31,3.87,17.5,17.5,0,0,1-6.74,1.33,24.5,24.5,0,0,1-8.36-1.51A15.41,15.41,0,0,1,663.34,524Z" transform="translate(-7.36 -253.52)"/><path class="cls-3" d="M729.66,491a3.53,3.53,0,0,1,2.65,1.07,3.72,3.72,0,0,1,1,2.69v31.69q0,6.48-2.46,10.54a14.75,14.75,0,0,1-6.64,5.93,22.59,22.59,0,0,1-9.39,1.88,29.79,29.79,0,0,1-5.31-.48,15.31,15.31,0,0,1-4.34-1.37,5.6,5.6,0,0,1-2.51-2,2.82,2.82,0,0,1-.22-2.58,3.61,3.61,0,0,1,1.77-2.4,3.06,3.06,0,0,1,2.58-.11c.83.34,1.94.79,3.31,1.33a12.87,12.87,0,0,0,4.72.81,14.38,14.38,0,0,0,6.11-1.18,8,8,0,0,0,3.8-3.69,14.15,14.15,0,0,0,1.29-6.48v-5.09l1.18,1.77a12.26,12.26,0,0,1-3.1,4.06,13.72,13.72,0,0,1-4.53,2.5,17.93,17.93,0,0,1-5.78.89,13,13,0,0,1-7-1.81,11.72,11.72,0,0,1-4.45-5,16.55,16.55,0,0,1-1.55-7.33V494.75a3.72,3.72,0,0,1,1-2.69,3.53,3.53,0,0,1,2.65-1.07,3.58,3.58,0,0,1,2.62,1.07,3.67,3.67,0,0,1,1.07,2.69v19.9q0,4.86,2.13,7.11t6.34,2.25a9.66,9.66,0,0,0,4.86-1.18,8.54,8.54,0,0,0,3.25-3.28,9.9,9.9,0,0,0,1.18-4.9v-19.9a3.66,3.66,0,0,1,1.06-2.69A3.59,3.59,0,0,1,729.66,491Z" transform="translate(-7.36 -253.52)"/><path class="cls-3" d="M740.64,524a4,4,0,0,1-.59-2.4,2.94,2.94,0,0,1,1.55-2.32,3.3,3.3,0,0,1,2.17-.55,3.56,3.56,0,0,1,2.18,1.14,16.38,16.38,0,0,0,4.6,3.61,13.11,13.11,0,0,0,6.15,1.33,14.81,14.81,0,0,0,3-.48,5.83,5.83,0,0,0,2.66-1.48,4.17,4.17,0,0,0,1.1-3.13,3.81,3.81,0,0,0-1.18-2.94,8.86,8.86,0,0,0-3.09-1.81c-1.28-.47-2.65-.9-4.13-1.29s-3.15-.93-4.75-1.47a18,18,0,0,1-4.31-2.1,10.19,10.19,0,0,1-3.13-3.36,9.85,9.85,0,0,1-1.22-5.08,9.43,9.43,0,0,1,2-6,13.15,13.15,0,0,1,5.09-3.91,16.56,16.56,0,0,1,6.81-1.4,19.64,19.64,0,0,1,4.5.56,18.82,18.82,0,0,1,4.57,1.73,13,13,0,0,1,3.83,3.09,4.3,4.3,0,0,1,.85,2.29,2.67,2.67,0,0,1-1.22,2.36,2.93,2.93,0,0,1-2.13.66,3.27,3.27,0,0,1-2.07-.81,9.42,9.42,0,0,0-3.61-2.76,12,12,0,0,0-5-1,11.27,11.27,0,0,0-2.91.41,5.55,5.55,0,0,0-2.54,1.43,4.1,4.1,0,0,0-1,3,3.79,3.79,0,0,0,1.21,2.95,9.64,9.64,0,0,0,3.21,1.84,38.48,38.48,0,0,0,4.34,1.33c1.53.39,3,.86,4.54,1.4a16.87,16.87,0,0,1,4.05,2.1,9.65,9.65,0,0,1,4.09,8.44,9.34,9.34,0,0,1-2.1,6.15,13.3,13.3,0,0,1-5.31,3.87,17.5,17.5,0,0,1-6.74,1.33,24.5,24.5,0,0,1-8.36-1.51A15.41,15.41,0,0,1,740.64,524Z" transform="translate(-7.36 -253.52)"/><path class="cls-3" d="M777.63,491.73H795a3.4,3.4,0,0,1,3.46,3.46,3.15,3.15,0,0,1-1,2.36,3.43,3.43,0,0,1-2.47,1H777.63a3.38,3.38,0,0,1-2.47-1,3.3,3.3,0,0,1-1-2.4,3.24,3.24,0,0,1,1-2.43A3.43,3.43,0,0,1,777.63,491.73Zm7.74-9.58a3.53,3.53,0,0,1,2.65,1.07,3.7,3.7,0,0,1,1,2.69V520.1a4.51,4.51,0,0,0,.44,2.14,2.28,2.28,0,0,0,1.22,1.1,4.34,4.34,0,0,0,1.58.3,3.31,3.31,0,0,0,1.44-.3,3.63,3.63,0,0,1,1.51-.29,2.16,2.16,0,0,1,1.62.81,3.17,3.17,0,0,1,.74,2.21,3.26,3.26,0,0,1-1.92,2.87,8.06,8.06,0,0,1-4.12,1.11,22.68,22.68,0,0,1-2.95-.22,9.18,9.18,0,0,1-3.28-1.11,6.7,6.7,0,0,1-2.62-2.83,12.08,12.08,0,0,1-1-5.49V485.91a3.66,3.66,0,0,1,1.07-2.69A3.58,3.58,0,0,1,785.37,482.15Z" transform="translate(-7.36 -253.52)"/><path class="cls-3" d="M824.28,530.79a21.19,21.19,0,0,1-10.62-2.55,17.81,17.81,0,0,1-7-7,20.65,20.65,0,0,1-2.47-10.2A22,22,0,0,1,806.85,500a18.72,18.72,0,0,1,6.81-7.08,17.4,17.4,0,0,1,8.92-2.47,16.67,16.67,0,0,1,6.85,1.44,19.25,19.25,0,0,1,5.79,4,18.94,18.94,0,0,1,4,6,19.52,19.52,0,0,1,1.55,7.48,3.31,3.31,0,0,1-1.18,2.43,3.79,3.79,0,0,1-2.58,1H808.36l-1.77-6.27H834.3l-1.4,1.33v-1.84a7.85,7.85,0,0,0-1.7-4.53,10.49,10.49,0,0,0-3.83-3,11.06,11.06,0,0,0-4.79-1.07,12.83,12.83,0,0,0-4.24.7,9.46,9.46,0,0,0-3.61,2.25,10.71,10.71,0,0,0-2.5,4.08,18.54,18.54,0,0,0-.92,6.3,14.21,14.21,0,0,0,1.69,7.08,12.17,12.17,0,0,0,4.57,4.68,12.53,12.53,0,0,0,6.34,1.66,15.28,15.28,0,0,0,4.49-.56,11.09,11.09,0,0,0,3-1.36c.78-.54,1.47-1.06,2.06-1.55a4.31,4.31,0,0,1,2.21-.66,2.93,2.93,0,0,1,2.21.92,3,3,0,0,1,.89,2.17,3.78,3.78,0,0,1-1.62,2.95,17.81,17.81,0,0,1-5.49,3.39A18.79,18.79,0,0,1,824.28,530.79Z" transform="translate(-7.36 -253.52)"/><path class="cls-3" d="M868.56,490.63c3.64,0,6.44.89,8.4,2.69a13.13,13.13,0,0,1,3.91,7.25l-1.18-.36.51-1.18a15,15,0,0,1,2.92-3.87,16.63,16.63,0,0,1,4.67-3.24,13.46,13.46,0,0,1,5.83-1.29q5.07,0,7.88,2.17a11.31,11.31,0,0,1,3.91,5.82,28.27,28.27,0,0,1,1.1,8.14v19.53a3.7,3.7,0,0,1-1,2.69,3.78,3.78,0,0,1-5.27,0,3.66,3.66,0,0,1-1.07-2.69V506.84a15,15,0,0,0-.7-4.72,6.87,6.87,0,0,0-2.43-3.43,7.79,7.79,0,0,0-4.75-1.29,10.06,10.06,0,0,0-5.12,1.29,9.37,9.37,0,0,0-3.5,3.43,9.14,9.14,0,0,0-1.26,4.72v19.45a3.7,3.7,0,0,1-1,2.69,3.82,3.82,0,0,1-5.3,0,3.71,3.71,0,0,1-1-2.69V506.76a14.93,14.93,0,0,0-.7-4.71,6.58,6.58,0,0,0-2.39-3.39,7.77,7.77,0,0,0-4.72-1.26,10.08,10.08,0,0,0-5.08,1.26,8.8,8.8,0,0,0-3.43,3.39,9.33,9.33,0,0,0-1.21,4.71v19.53a3.66,3.66,0,0,1-1.07,2.69,3.58,3.58,0,0,1-2.62,1.07,3.53,3.53,0,0,1-2.65-1.07,3.7,3.7,0,0,1-1-2.69V495.05a3.7,3.7,0,0,1,1-2.69,3.53,3.53,0,0,1,2.65-1.07,3.58,3.58,0,0,1,2.62,1.07,3.66,3.66,0,0,1,1.07,2.69v4.34l-1.4.82a12.27,12.27,0,0,1,1.69-3.32,14.31,14.31,0,0,1,3-3.1,16.61,16.61,0,0,1,4-2.28A12.79,12.79,0,0,1,868.56,490.63Z" transform="translate(-7.36 -253.52)"/></svg>